<svg xmlns="http://www.w3.org/2000/svg" width="139" height="34" viewBox="0 0 139 34"><path fill="#036CB5" d="M122.744.34c2.525 0 4.927.578 7.082 1.612.338.152.678.335 1.015.518l-1.47 1.31-2.21-2.284-3.81 3.348-2.25-2.404-7.02 6.24 4.5 4.9-1.75 1.52 4.44 4.9-1.75 1.522 6.35 6.97 3.76-3.41 3.266 3.655c-.64.486-1.35.974-2.12 1.4-2.34 1.31-5.05 2.067-7.942 2.067-8.9 0-16.134-7.15-16.134-15.946-.03-8.735 7.205-15.92 16.1-15.92zm-2.956 14.943l3.85-3.41 3.448 3.806-3.85 3.4-3.448-3.81zm2.74 6.575l3.82-3.44 3.478 3.805-3.85 3.41-3.447-3.775zM117.05 8.8l3.848-3.408 3.448 3.804-3.85 3.41L117.05 8.8zm7.05-1.825l2.862-2.557 2.587 2.83-2.87 2.587-2.59-2.86zm5.11 11.717l2.862-2.556 2.587 2.86-2.87 2.558-2.59-2.862zm2.524 5.753l2.864-2.557 2.585 2.83-2.863 2.587-2.586-2.86zm1.17-13.15l1.91-1.703 1.723 1.887-1.908 1.7-1.73-1.89zm-2.463-5.63l1.91-1.734 1.73 1.92-1.91 1.71-1.72-1.89zm4.9 11.263l1.91-1.705L139 17.11l-1.94 1.703-1.723-1.885zm-8.59-4.232l2.87-2.556 2.59 2.83-2.86 2.557-2.58-2.83z"/><g transform="translate(0 2.61)"><defs><filter id="a" filterUnits="userSpaceOnUse" x="0" y="4.351" width="16.828" height="14.712"><feColorMatrix values="1 0 0 0 0 0 1 0 0 0 0 0 1 0 0 0 0 0 1 0"/></filter></defs><mask maskUnits="userSpaceOnUse" x="0" y="4.351" width="16.828" height="14.712" id="b"><path fill="#FFF" d="M0 4.35v14.713h16.828V4.35z" filter="url(#a)"/></mask><path mask="url(#b)" fill="#036CB5" d="M8.445 8.708H8.3L5.573 19.063H3.345L0 4.35h2.313l2.312 10.98h.144L7.45 4.35h1.84l2.87 10.98h.146l2.106-10.98h2.416l-3.346 14.713h-2.23"/></g><path fill="#036CB5" d="M19.762 15.408h4.727c-.11-2.177-1.16-3.05-2.28-3.05-1.26 0-2.23.977-2.46 3.05m6.38 3.903v1.58c-.93.54-2.17.96-3.66.96-3.47 0-4.89-2.16-4.89-5.43 0-3.15 1.59-5.43 4.68-5.43 2.58 0 4.17 1.68 4.17 5.07v.77H19.7c0 2.49 1.01 3.59 3.137 3.59 1.12 0 2.15-.39 3.285-1.08m5.113.87c.66.29 1.383.34 1.9.34 1.53 0 2.682-.95 2.682-4.31 0-2.63-.95-3.48-2.33-3.48-.825 0-1.424.23-2.25.687v6.78zm.02-8.32c.62-.33 1.67-.77 2.79-.77 2.56 0 3.943 1.79 3.943 5.11 0 3.88-1.86 5.77-4.85 5.77-1.094 0-2.787-.35-4.026-1.02V6.47l2.15-.52v5.915zM47.3 18.55h.102l4.417-11.6h2.56v14.713h-2.23V10.997h-.19l-4.21 10.666h-1.32l-4.21-10.416h-.19v10.416h-1.86V6.95h2.5m20.81 9.456c0-2.8-1.14-3.983-2.54-3.983-1.37 0-2.54 1.182-2.54 3.983 0 2.843 1.07 3.983 2.54 3.983 1.46 0 2.53-1.14 2.53-3.99m-7.24 0c0-3.63 1.98-5.44 4.7-5.44s4.71 1.8 4.71 5.43c0 3.54-1.88 5.43-4.71 5.43s-4.71-1.89-4.71-5.44m11.04-3.9c.93-.56 2.89-1.54 5.27-1.54 2.47 0 3.4.97 3.4 3.11v7.51H73.8v-7.03c0-1.64-.804-1.93-1.86-1.93-.824 0-1.88.37-2.52.74v8.21h-2.14V12.5zM80.5 15.4h4.727c-.1-2.175-1.154-3.05-2.27-3.05-1.26 0-2.23.98-2.456 3.05m6.38 3.905v1.58c-.93.54-2.17.954-3.66.954-3.46 0-4.89-2.16-4.89-5.44 0-3.16 1.59-5.44 4.69-5.44 2.58 0 4.18 1.68 4.18 5.06v.77h-6.73c0 2.49 1.01 3.59 3.13 3.59 1.12 0 2.15-.4 3.28-1.08m8.89-8.34h2.21l-3.74 10.37c-1.03 2.86-2.29 4.36-4.66 4.36V24c1.41 0 2.27-1.12 2.77-2.658L88.38 10.97h2.27l2.645 7.634h.122l2.35-7.635z"/><path fill="#B6B6B6" d="M22.302 31.234v-.896c.765.39 1.494.584 2.184.584.576 0 1.016-.106 1.324-.318.307-.21.462-.498.462-.86s-.127-.63-.38-.81c-.253-.18-.725-.405-1.415-.668-.24-.09-.394-.15-.462-.177l-.4-.17s-.33-.15-.39-.19c-.062-.05-.165-.11-.313-.19-.147-.09-.246-.16-.298-.23-.05-.07-.12-.15-.21-.25s-.15-.2-.18-.31c-.03-.1-.06-.22-.086-.35-.028-.14-.04-.28-.04-.43 0-.59.215-1.07.65-1.43.435-.36 1.034-.55 1.8-.55.677 0 1.352.12 2.02.37v.94c-.65-.32-1.298-.48-1.948-.48-.46 0-.8.1-1.026.29s-.34.45-.34.77c0 .34.114.6.34.78s.63.37 1.21.59c1 .37 1.686.7 2.062 1 .376.3.565.74.565 1.33 0 .62-.25 1.12-.77 1.51-.51.39-1.22.59-2.13.59-.82 0-1.57-.17-2.22-.5zm10.436.343h-.973l-.073-.603c-.588.486-1.176.73-1.764.73-.492 0-.873-.135-1.144-.402s-.405-.605-.405-1.016c0-.216.03-.42.11-.62s.21-.39.39-.577c.18-.19.45-.34.82-.46.36-.12.8-.17 1.32-.17h.63v-.28c0-.47-.09-.79-.26-.96-.17-.17-.46-.26-.86-.26-.5 0-1.1.2-1.82.61v-.84c.73-.34 1.46-.52 2.17-.52.69 0 1.17.14 1.43.43.26.28.4.72.4 1.29v3.61zm-1.066-2.385h-.544c-1.122 0-1.683.337-1.683 1.01 0 .238.076.408.226.517.16.1.34.16.57.16.29 0 .57-.07.83-.21.27-.14.47-.3.61-.48v-1zm2.733 4.47v-6.655c.3-.23.657-.415 1.068-.554.41-.138.812-.208 1.21-.208 1.422 0 2.133.87 2.133 2.615 0 .903-.184 1.593-.554 2.072-.37.48-.9.717-1.59.717-.478 0-.88-.13-1.2-.37v2.37h-1.067zm1.057-6.303v3.15c.137.13.31.23.517.29.21.06.39.1.54.1.37 0 .67-.15.89-.44.21-.3.32-.84.32-1.61 0-.64-.11-1.1-.33-1.39-.22-.3-.51-.44-.87-.44-.41 0-.77.1-1.08.32zm5.8-1.06v5.27h-1.066v-5.02l1.067-.26zm-1.23-1.54c0-.19.07-.35.21-.5.14-.14.303-.22.487-.22s.34.07.48.21c.14.14.21.31.21.49s-.07.35-.21.49c-.14.14-.31.21-.49.21s-.35-.07-.49-.21c-.14-.14-.21-.31-.21-.5zm5.226 6.2c.493 0 1.036-.18 1.63-.54v.79c-.546.32-1.152.48-1.815.48-.834 0-1.448-.24-1.84-.72-.394-.48-.59-1.15-.59-2.01 0-.82.2-1.48.604-1.98.405-.5.978-.75 1.724-.75.66 0 1.17.21 1.53.64.36.43.55 1.06.55 1.89v.38H43.7c0 .62.125 1.07.378 1.36.253.29.647.44 1.18.44zm-.32-4.03c-.32 0-.59.13-.81.38-.217.26-.354.64-.41 1.14h2.35c-.028-.51-.147-.9-.36-1.15s-.467-.38-.768-.38zm3.462 4.64v-4.56c.848-.52 1.72-.77 2.62-.77.61 0 1.04.12 1.3.37s.39.64.39 1.18v3.77h-1.06v-3.53c0-.38-.08-.64-.236-.77-.157-.14-.386-.2-.687-.2-.41 0-.826.12-1.25.37v4.12H48.4zm6.998-5.08h1.62l-.256.7h-1.364v2.75c0 .69.294 1.04.882 1.04.226 0 .454-.05.688-.15v.66c-.32.12-.705.19-1.15.19-.512 0-.888-.15-1.127-.45-.24-.29-.36-.68-.36-1.16V25.8l1.07-.78v1.47zm3.71-.2v5.27h-1.07v-5.02l1.07-.26zm-1.232-1.54c0-.19.07-.36.21-.5.14-.15.303-.22.488-.22s.348.07.488.21c.14.15.21.31.21.5s-.07.36-.21.5c-.14.14-.302.21-.486.21s-.346-.07-.487-.21c-.14-.14-.21-.31-.21-.5zm8.493 1.89v.83c-.52-.35-1.04-.52-1.56-.52-.27 0-.49.05-.66.16-.17.1-.26.27-.26.5 0 .21.09.38.28.51.18.13.48.26.89.39l.5.18c.11.04.26.11.44.21.18.09.32.19.41.29.09.1.17.22.25.38.07.16.11.33.11.53 0 .48-.19.86-.57 1.14-.38.29-.89.43-1.52.43-.71 0-1.31-.15-1.78-.46v-.81c.6.36 1.15.54 1.65.54.75 0 1.13-.25 1.13-.75 0-.1-.02-.19-.07-.27-.047-.09-.098-.15-.156-.21-.055-.057-.15-.11-.28-.18-.13-.067-.24-.116-.326-.147l-.42-.153c-.28-.1-.505-.19-.67-.27-.166-.074-.33-.173-.493-.294-.167-.12-.28-.268-.36-.43s-.11-.368-.11-.597c0-.29.07-.54.203-.748.138-.21.316-.36.535-.45.22-.09.42-.15.6-.186.18-.04.36-.055.54-.055.582 0 1.136.14 1.662.41zm5.66 4.91h-.98l-.08-.61c-.59.48-1.18.73-1.77.73-.49 0-.88-.14-1.15-.4-.27-.27-.41-.61-.41-1.02 0-.22.04-.42.12-.62.07-.2.2-.39.39-.58s.45-.34.82-.46c.36-.12.8-.17 1.31-.17h.63v-.28c0-.47-.088-.79-.258-.96-.17-.17-.46-.26-.86-.26-.49 0-1.1.204-1.814.614v-.83c.74-.34 1.46-.51 2.172-.51.69 0 1.17.14 1.43.43.265.28.4.712.4 1.29v3.61zm-1.07-2.39h-.55c-1.12 0-1.69.33-1.69 1.01 0 .23.07.4.22.51.15.1.34.16.56.16.29 0 .56-.07.83-.21.27-.14.47-.3.6-.48v-1zm3.75-2.7h1.62l-.26.71h-1.36v2.75c0 .69.29 1.04.88 1.04.22 0 .45-.05.69-.15v.66c-.32.12-.7.19-1.15.19-.51 0-.89-.15-1.13-.45-.24-.3-.36-.68-.36-1.16V25.8l1.07-.78v1.47z"/></svg>